<?xml version="1.0" encoding="UTF-8"?>
<svg xmlns="http://www.w3.org/2000/svg" xmlns:xlink="http://www.w3.org/1999/xlink" width="2560" height="1440" viewBox="0 0 2560 1440">
<defs>
<g>
<g id="glyph-0-0">
<path d="M 3.875 -1.65625 C 3.875 -2.09375 3.765625 -2.429688 3.546875 -2.671875 C 3.335938 -2.910156 3.035156 -3.03125 2.640625 -3.03125 C 2.253906 -3.03125 1.953125 -2.910156 1.734375 -2.671875 C 1.523438 -2.429688 1.421875 -2.09375 1.421875 -1.65625 C 1.421875 -1.21875 1.523438 -0.878906 1.734375 -0.640625 C 1.953125 -0.398438 2.253906 -0.28125 2.640625 -0.28125 C 3.035156 -0.28125 3.335938 -0.398438 3.546875 -0.640625 C 3.765625 -0.878906 3.875 -1.21875 3.875 -1.65625 Z M 3.71875 -4.609375 C 3.71875 -4.972656 3.625 -5.257812 3.4375 -5.46875 C 3.25 -5.675781 2.984375 -5.78125 2.640625 -5.78125 C 2.304688 -5.78125 2.046875 -5.675781 1.859375 -5.46875 C 1.671875 -5.257812 1.578125 -4.972656 1.578125 -4.609375 C 1.578125 -4.234375 1.671875 -3.941406 1.859375 -3.734375 C 2.046875 -3.535156 2.304688 -3.4375 2.640625 -3.4375 C 2.984375 -3.4375 3.25 -3.535156 3.4375 -3.734375 C 3.625 -3.941406 3.71875 -4.234375 3.71875 -4.609375 Z M 3.28125 -3.234375 C 3.738281 -3.171875 4.09375 -3 4.34375 -2.71875 C 4.601562 -2.445312 4.734375 -2.09375 4.734375 -1.65625 C 4.734375 -1.09375 4.550781 -0.65625 4.1875 -0.34375 C 3.832031 -0.03125 3.316406 0.125 2.640625 0.125 C 1.972656 0.125 1.457031 -0.03125 1.09375 -0.34375 C 0.738281 -0.65625 0.5625 -1.09375 0.5625 -1.65625 C 0.5625 -2.09375 0.6875 -2.445312 0.9375 -2.71875 C 1.195312 -3 1.5625 -3.171875 2.03125 -3.234375 C 1.613281 -3.304688 1.296875 -3.457031 1.078125 -3.6875 C 0.859375 -3.925781 0.75 -4.234375 0.75 -4.609375 C 0.75 -5.097656 0.914062 -5.484375 1.25 -5.765625 C 1.59375 -6.046875 2.054688 -6.1875 2.640625 -6.1875 C 3.234375 -6.1875 3.695312 -6.046875 4.03125 -5.765625 C 4.363281 -5.484375 4.53125 -5.097656 4.53125 -4.609375 C 4.53125 -4.234375 4.421875 -3.925781 4.203125 -3.6875 C 3.992188 -3.457031 3.6875 -3.304688 3.28125 -3.234375 Z "/>
</g>
</g>
</defs>
<g fill="rgb(97.254902%, 98.039216%, 98.823529%)" fill-opacity="1">
<use xlink:href="#glyph-0-0" x="30" y="27.735352"/>
</g>
</svg>
