<?xml version="1.0" encoding="UTF-8"?>
<svg xmlns="http://www.w3.org/2000/svg" xmlns:xlink="http://www.w3.org/1999/xlink" width="2560" height="1440" viewBox="0 0 2560 1440">
<defs>
<g>
<g id="glyph-0-0">
<path d="M 0.625 0 L 0.625 -0.78125 L 1.875 -0.78125 L 1.875 -8.921875 L 0.625 -8.921875 L 0.625 -9.71875 L 6.390625 -9.71875 C 7.566406 -9.71875 8.453125 -9.515625 9.046875 -9.109375 C 9.640625 -8.710938 9.9375 -8.113281 9.9375 -7.3125 C 9.9375 -6.738281 9.734375 -6.28125 9.328125 -5.9375 C 8.921875 -5.601562 8.3125 -5.390625 7.5 -5.296875 C 8.476562 -5.210938 9.226562 -4.953125 9.75 -4.515625 C 10.269531 -4.085938 10.53125 -3.519531 10.53125 -2.8125 C 10.53125 -1.84375 10.164062 -1.128906 9.4375 -0.671875 C 8.707031 -0.222656 7.570312 0 6.03125 0 Z M 4.375 -5.65625 L 5.21875 -5.65625 C 5.96875 -5.65625 6.519531 -5.789062 6.875 -6.0625 C 7.238281 -6.332031 7.421875 -6.75 7.421875 -7.3125 C 7.421875 -7.875 7.242188 -8.28125 6.890625 -8.53125 C 6.546875 -8.789062 5.988281 -8.921875 5.21875 -8.921875 L 4.375 -8.921875 Z M 4.375 -0.78125 L 5.296875 -0.78125 C 6.128906 -0.78125 6.742188 -0.945312 7.140625 -1.28125 C 7.546875 -1.613281 7.75 -2.125 7.75 -2.8125 C 7.75 -3.507812 7.546875 -4.023438 7.140625 -4.359375 C 6.734375 -4.703125 6.117188 -4.875 5.296875 -4.875 L 4.375 -4.875 Z "/>
</g>
<g id="glyph-0-1">
<path d="M 8.25 -6.921875 L 8.25 -0.78125 L 9.234375 -0.78125 L 9.234375 0 L 5.9375 0 L 5.9375 -0.96875 C 5.664062 -0.5625 5.351562 -0.265625 5 -0.078125 C 4.644531 0.0976562 4.195312 0.1875 3.65625 0.1875 C 2.875 0.1875 2.285156 -0.0390625 1.890625 -0.5 C 1.492188 -0.957031 1.296875 -1.628906 1.296875 -2.515625 L 1.296875 -6.125 L 0.3125 -6.125 L 0.3125 -6.921875 L 3.59375 -6.921875 L 3.59375 -2.875 C 3.59375 -2.019531 3.664062 -1.472656 3.8125 -1.234375 C 3.957031 -1.003906 4.21875 -0.890625 4.59375 -0.890625 C 5.0625 -0.890625 5.398438 -1.0625 5.609375 -1.40625 C 5.828125 -1.75 5.9375 -2.296875 5.9375 -3.046875 L 5.9375 -6.125 L 5.109375 -6.125 L 5.109375 -6.921875 Z "/>
</g>
<g id="glyph-0-2">
<path d="M 1.296875 -0.78125 L 1.296875 -9.34375 L 0.3125 -9.34375 L 0.3125 -10.125 L 3.59375 -10.125 L 3.59375 -6.046875 C 3.789062 -6.398438 4.050781 -6.664062 4.375 -6.84375 C 4.707031 -7.019531 5.117188 -7.109375 5.609375 -7.109375 C 6.597656 -7.109375 7.375 -6.78125 7.9375 -6.125 C 8.5 -5.476562 8.78125 -4.59375 8.78125 -3.46875 C 8.78125 -2.332031 8.5 -1.4375 7.9375 -0.78125 C 7.375 -0.132812 6.597656 0.1875 5.609375 0.1875 C 5.117188 0.1875 4.707031 0.0976562 4.375 -0.078125 C 4.050781 -0.253906 3.789062 -0.519531 3.59375 -0.875 L 3.59375 0 L 0.3125 0 L 0.3125 -0.78125 Z M 3.59375 -3.125 C 3.59375 -2.3125 3.695312 -1.722656 3.90625 -1.359375 C 4.113281 -1.003906 4.445312 -0.828125 4.90625 -0.828125 C 5.375 -0.828125 5.707031 -1.015625 5.90625 -1.390625 C 6.101562 -1.773438 6.203125 -2.46875 6.203125 -3.46875 C 6.203125 -4.457031 6.101562 -5.140625 5.90625 -5.515625 C 5.707031 -5.898438 5.375 -6.09375 4.90625 -6.09375 C 4.445312 -6.09375 4.113281 -5.910156 3.90625 -5.546875 C 3.695312 -5.191406 3.59375 -4.609375 3.59375 -3.796875 Z "/>
</g>
<g id="glyph-0-3">
<path d="M 3.734375 -0.78125 L 4.734375 -0.78125 L 4.734375 0 L 0.453125 0 L 0.453125 -0.78125 L 1.4375 -0.78125 L 1.4375 -9.34375 L 0.453125 -9.34375 L 0.453125 -10.125 L 3.734375 -10.125 Z "/>
</g>
<g id="glyph-0-4">
<path d="M 5.34375 -3.90625 C 5.34375 -4.8125 5.253906 -5.445312 5.078125 -5.8125 C 4.910156 -6.1875 4.625 -6.375 4.21875 -6.375 C 3.820312 -6.375 3.539062 -6.191406 3.375 -5.828125 C 3.207031 -5.472656 3.125 -4.867188 3.125 -4.015625 L 3.125 -3.90625 Z M 7.875 -3.125 L 3.125 -3.125 L 3.125 -3.078125 C 3.125 -2.179688 3.253906 -1.535156 3.515625 -1.140625 C 3.785156 -0.742188 4.222656 -0.546875 4.828125 -0.546875 C 5.328125 -0.546875 5.726562 -0.675781 6.03125 -0.9375 C 6.34375 -1.207031 6.539062 -1.59375 6.625 -2.09375 L 7.703125 -2.09375 C 7.515625 -1.3125 7.144531 -0.734375 6.59375 -0.359375 C 6.039062 0.00390625 5.265625 0.1875 4.265625 0.1875 C 3.066406 0.1875 2.144531 -0.125 1.5 -0.75 C 0.863281 -1.382812 0.546875 -2.289062 0.546875 -3.46875 C 0.546875 -4.613281 0.875 -5.503906 1.53125 -6.140625 C 2.1875 -6.785156 3.097656 -7.109375 4.265625 -7.109375 C 5.410156 -7.109375 6.285156 -6.769531 6.890625 -6.09375 C 7.503906 -5.414062 7.832031 -4.425781 7.875 -3.125 Z "/>
</g>
<g id="glyph-0-5">
</g>
<g id="glyph-0-6">
<path d="M 1.03125 -0.46875 L 1.03125 -2.765625 L 1.859375 -2.765625 C 1.984375 -2.035156 2.28125 -1.488281 2.75 -1.125 C 3.21875 -0.769531 3.863281 -0.59375 4.6875 -0.59375 C 5.363281 -0.59375 5.875 -0.71875 6.21875 -0.96875 C 6.570312 -1.226562 6.75 -1.609375 6.75 -2.109375 C 6.75 -2.492188 6.628906 -2.796875 6.390625 -3.015625 C 6.160156 -3.234375 5.671875 -3.4375 4.921875 -3.625 L 3.46875 -3.984375 C 2.507812 -4.222656 1.835938 -4.554688 1.453125 -4.984375 C 1.066406 -5.421875 0.875 -6.039062 0.875 -6.84375 C 0.875 -7.800781 1.191406 -8.546875 1.828125 -9.078125 C 2.472656 -9.617188 3.375 -9.890625 4.53125 -9.890625 C 5.09375 -9.890625 5.679688 -9.84375 6.296875 -9.75 C 6.910156 -9.65625 7.550781 -9.507812 8.21875 -9.3125 L 8.21875 -7.171875 L 7.390625 -7.171875 C 7.265625 -7.835938 6.988281 -8.328125 6.5625 -8.640625 C 6.132812 -8.953125 5.53125 -9.109375 4.75 -9.109375 C 4.101562 -9.109375 3.613281 -8.992188 3.28125 -8.765625 C 2.957031 -8.546875 2.796875 -8.210938 2.796875 -7.765625 C 2.796875 -7.367188 2.90625 -7.0625 3.125 -6.84375 C 3.351562 -6.632812 3.910156 -6.421875 4.796875 -6.203125 L 6.25 -5.84375 C 7.15625 -5.613281 7.8125 -5.257812 8.21875 -4.78125 C 8.625 -4.300781 8.828125 -3.644531 8.828125 -2.8125 C 8.828125 -1.832031 8.488281 -1.085938 7.8125 -0.578125 C 7.132812 -0.0664062 6.140625 0.1875 4.828125 0.1875 C 4.191406 0.1875 3.5625 0.128906 2.9375 0.015625 C 2.3125 -0.0859375 1.675781 -0.25 1.03125 -0.46875 Z "/>
</g>
<g id="glyph-0-7">
<path d="M 4.453125 -0.546875 C 4.941406 -0.546875 5.28125 -0.753906 5.46875 -1.171875 C 5.664062 -1.585938 5.765625 -2.351562 5.765625 -3.46875 C 5.765625 -4.570312 5.664062 -5.332031 5.46875 -5.75 C 5.28125 -6.164062 4.941406 -6.375 4.453125 -6.375 C 3.960938 -6.375 3.617188 -6.160156 3.421875 -5.734375 C 3.222656 -5.316406 3.125 -4.5625 3.125 -3.46875 C 3.125 -2.363281 3.222656 -1.597656 3.421875 -1.171875 C 3.617188 -0.753906 3.960938 -0.546875 4.453125 -0.546875 Z M 4.453125 0.1875 C 3.234375 0.1875 2.273438 -0.132812 1.578125 -0.78125 C 0.890625 -1.425781 0.546875 -2.320312 0.546875 -3.46875 C 0.546875 -4.601562 0.890625 -5.492188 1.578125 -6.140625 C 2.273438 -6.785156 3.234375 -7.109375 4.453125 -7.109375 C 5.671875 -7.109375 6.625 -6.785156 7.3125 -6.140625 C 8.007812 -5.492188 8.359375 -4.601562 8.359375 -3.46875 C 8.359375 -2.320312 8.007812 -1.425781 7.3125 -0.78125 C 6.625 -0.132812 5.671875 0.1875 4.453125 0.1875 Z "/>
</g>
<g id="glyph-0-8">
<path d="M 7.15625 -7 L 7.15625 -4.9375 L 6.421875 -4.9375 C 6.398438 -5.300781 6.300781 -5.570312 6.125 -5.75 C 5.945312 -5.9375 5.695312 -6.03125 5.375 -6.03125 C 4.863281 -6.03125 4.460938 -5.804688 4.171875 -5.359375 C 3.878906 -4.921875 3.734375 -4.304688 3.734375 -3.515625 L 3.734375 -0.78125 L 5 -0.78125 L 5 0 L 0.453125 0 L 0.453125 -0.78125 L 1.4375 -0.78125 L 1.4375 -6.125 L 0.390625 -6.125 L 0.390625 -6.921875 L 3.734375 -6.921875 L 3.734375 -5.6875 C 3.960938 -6.164062 4.257812 -6.519531 4.625 -6.75 C 5 -6.988281 5.457031 -7.109375 6 -7.109375 C 6.132812 -7.109375 6.296875 -7.097656 6.484375 -7.078125 C 6.679688 -7.054688 6.90625 -7.03125 7.15625 -7 Z "/>
</g>
<g id="glyph-0-9">
<path d="M 1.328125 -6.125 L 0.3125 -6.125 L 0.3125 -6.921875 L 1.328125 -6.921875 L 1.328125 -9.0625 L 3.625 -9.0625 L 3.625 -6.921875 L 5.546875 -6.921875 L 5.546875 -6.125 L 3.625 -6.125 L 3.625 -1.890625 C 3.625 -1.285156 3.671875 -0.910156 3.765625 -0.765625 C 3.859375 -0.617188 4.03125 -0.546875 4.28125 -0.546875 C 4.5625 -0.546875 4.769531 -0.640625 4.90625 -0.828125 C 5.039062 -1.015625 5.113281 -1.300781 5.125 -1.6875 L 6.09375 -1.6875 C 6.050781 -1 5.859375 -0.515625 5.515625 -0.234375 C 5.179688 0.046875 4.597656 0.1875 3.765625 0.1875 C 2.816406 0.1875 2.171875 0.0390625 1.828125 -0.25 C 1.492188 -0.550781 1.328125 -1.097656 1.328125 -1.890625 Z "/>
</g>
</g>
</defs>
<g fill="rgb(100%, 100%, 100%)" fill-opacity="1">
<use xlink:href="#glyph-0-0" x="30" y="32.519531"/>
<use xlink:href="#glyph-0-1" x="41" y="32.519531"/>
<use xlink:href="#glyph-0-2" x="51" y="32.519531"/>
<use xlink:href="#glyph-0-2" x="60" y="32.519531"/>
<use xlink:href="#glyph-0-3" x="69" y="32.519531"/>
<use xlink:href="#glyph-0-4" x="74" y="32.519531"/>
<use xlink:href="#glyph-0-5" x="82" y="32.519531"/>
<use xlink:href="#glyph-0-6" x="87" y="32.519531"/>
<use xlink:href="#glyph-0-7" x="97" y="32.519531"/>
<use xlink:href="#glyph-0-8" x="106" y="32.519531"/>
<use xlink:href="#glyph-0-9" x="113" y="32.519531"/>
</g>
</svg>
