<?xml version="1.0" encoding="UTF-8"?>
<svg xmlns="http://www.w3.org/2000/svg" xmlns:xlink="http://www.w3.org/1999/xlink" width="2560" height="1440" viewBox="0 0 2560 1440">
<defs>
<g>
<g id="glyph-0-0">
<path d="M 2.515625 -3.640625 L 2.515625 -3.25 L 0.84375 -3.25 L 0.84375 -2.203125 C 0.925781 -2.253906 1.023438 -2.296875 1.140625 -2.328125 C 1.253906 -2.359375 1.378906 -2.375 1.515625 -2.375 C 1.910156 -2.375 2.222656 -2.265625 2.453125 -2.046875 C 2.679688 -1.828125 2.796875 -1.53125 2.796875 -1.15625 C 2.796875 -0.769531 2.679688 -0.46875 2.453125 -0.25 C 2.222656 -0.03125 1.898438 0.078125 1.484375 0.078125 C 1.316406 0.078125 1.144531 0.0546875 0.96875 0.015625 C 0.789062 -0.0234375 0.609375 -0.0859375 0.421875 -0.171875 L 0.421875 -0.890625 L 0.703125 -0.890625 C 0.710938 -0.648438 0.785156 -0.46875 0.921875 -0.34375 C 1.054688 -0.226562 1.242188 -0.171875 1.484375 -0.171875 C 1.734375 -0.171875 1.925781 -0.253906 2.0625 -0.421875 C 2.207031 -0.585938 2.28125 -0.832031 2.28125 -1.15625 C 2.28125 -1.46875 2.210938 -1.707031 2.078125 -1.875 C 1.941406 -2.050781 1.742188 -2.140625 1.484375 -2.140625 C 1.335938 -2.140625 1.207031 -2.113281 1.09375 -2.0625 C 0.976562 -2.007812 0.878906 -1.925781 0.796875 -1.8125 L 0.59375 -1.8125 L 0.59375 -3.640625 Z "/>
</g>
</g>
</defs>
<g fill="rgb(53.333333%, 53.333333%, 53.333333%)" fill-opacity="1">
<use xlink:href="#glyph-0-0" x="30" y="24.641602"/>
</g>
</svg>
