<?xml version="1.0" encoding="UTF-8"?>
<svg xmlns="http://www.w3.org/2000/svg" xmlns:xlink="http://www.w3.org/1999/xlink" width="2560" height="1440" viewBox="0 0 2560 1440">
<defs>
<g>
<g id="glyph-0-0">
<path d="M 0.515625 -0.234375 L 0.515625 -1.390625 L 0.921875 -1.390625 C 0.984375 -1.023438 1.132812 -0.75 1.375 -0.5625 C 1.613281 -0.382812 1.9375 -0.296875 2.34375 -0.296875 C 2.6875 -0.296875 2.941406 -0.359375 3.109375 -0.484375 C 3.285156 -0.617188 3.375 -0.8125 3.375 -1.0625 C 3.375 -1.25 3.3125 -1.394531 3.1875 -1.5 C 3.070312 -1.613281 2.832031 -1.71875 2.46875 -1.8125 L 1.734375 -2 C 1.253906 -2.113281 0.914062 -2.28125 0.71875 -2.5 C 0.53125 -2.71875 0.4375 -3.023438 0.4375 -3.421875 C 0.4375 -3.898438 0.597656 -4.273438 0.921875 -4.546875 C 1.242188 -4.816406 1.691406 -4.953125 2.265625 -4.953125 C 2.546875 -4.953125 2.835938 -4.925781 3.140625 -4.875 C 3.453125 -4.832031 3.773438 -4.765625 4.109375 -4.671875 L 4.109375 -3.59375 L 3.703125 -3.59375 C 3.640625 -3.925781 3.5 -4.171875 3.28125 -4.328125 C 3.070312 -4.484375 2.769531 -4.5625 2.375 -4.5625 C 2.050781 -4.5625 1.804688 -4.503906 1.640625 -4.390625 C 1.484375 -4.273438 1.40625 -4.109375 1.40625 -3.890625 C 1.40625 -3.691406 1.457031 -3.535156 1.5625 -3.421875 C 1.675781 -3.316406 1.957031 -3.207031 2.40625 -3.09375 L 3.125 -2.921875 C 3.582031 -2.804688 3.910156 -2.628906 4.109375 -2.390625 C 4.316406 -2.148438 4.421875 -1.820312 4.421875 -1.40625 C 4.421875 -0.914062 4.25 -0.539062 3.90625 -0.28125 C 3.570312 -0.03125 3.070312 0.09375 2.40625 0.09375 C 2.09375 0.09375 1.78125 0.0664062 1.46875 0.015625 C 1.15625 -0.0351562 0.835938 -0.117188 0.515625 -0.234375 Z "/>
</g>
<g id="glyph-0-1">
<path d="M 0.65625 -3.0625 L 0.15625 -3.0625 L 0.15625 -3.46875 L 0.65625 -3.46875 L 0.65625 -4.53125 L 1.8125 -4.53125 L 1.8125 -3.46875 L 2.78125 -3.46875 L 2.78125 -3.0625 L 1.8125 -3.0625 L 1.8125 -0.953125 C 1.8125 -0.648438 1.832031 -0.460938 1.875 -0.390625 C 1.925781 -0.316406 2.015625 -0.28125 2.140625 -0.28125 C 2.285156 -0.28125 2.390625 -0.320312 2.453125 -0.40625 C 2.523438 -0.5 2.5625 -0.644531 2.5625 -0.84375 L 3.046875 -0.84375 C 3.023438 -0.5 2.929688 -0.253906 2.765625 -0.109375 C 2.597656 0.0234375 2.304688 0.09375 1.890625 0.09375 C 1.410156 0.09375 1.082031 0.0195312 0.90625 -0.125 C 0.738281 -0.28125 0.65625 -0.554688 0.65625 -0.953125 Z "/>
</g>
<g id="glyph-0-2">
<path d="M 2.671875 -1.953125 C 2.671875 -2.410156 2.628906 -2.726562 2.546875 -2.90625 C 2.460938 -3.09375 2.316406 -3.1875 2.109375 -3.1875 C 1.910156 -3.1875 1.769531 -3.097656 1.6875 -2.921875 C 1.601562 -2.742188 1.5625 -2.441406 1.5625 -2.015625 L 1.5625 -1.953125 Z M 3.9375 -1.5625 L 1.5625 -1.5625 L 1.5625 -1.546875 C 1.5625 -1.097656 1.628906 -0.773438 1.765625 -0.578125 C 1.898438 -0.378906 2.113281 -0.28125 2.40625 -0.28125 C 2.65625 -0.28125 2.859375 -0.34375 3.015625 -0.46875 C 3.171875 -0.601562 3.269531 -0.796875 3.3125 -1.046875 L 3.859375 -1.046875 C 3.765625 -0.648438 3.578125 -0.359375 3.296875 -0.171875 C 3.023438 0.00390625 2.640625 0.09375 2.140625 0.09375 C 1.535156 0.09375 1.070312 -0.0625 0.75 -0.375 C 0.4375 -0.695312 0.28125 -1.148438 0.28125 -1.734375 C 0.28125 -2.304688 0.441406 -2.753906 0.765625 -3.078125 C 1.085938 -3.398438 1.546875 -3.5625 2.140625 -3.5625 C 2.710938 -3.5625 3.148438 -3.390625 3.453125 -3.046875 C 3.753906 -2.710938 3.914062 -2.21875 3.9375 -1.5625 Z "/>
</g>
<g id="glyph-0-3">
<path d="M 1.796875 -1.90625 L 1.796875 -1.5625 C 1.796875 -1.15625 1.847656 -0.859375 1.953125 -0.671875 C 2.054688 -0.492188 2.222656 -0.40625 2.453125 -0.40625 C 2.691406 -0.40625 2.859375 -0.5 2.953125 -0.6875 C 3.046875 -0.882812 3.09375 -1.234375 3.09375 -1.734375 C 3.09375 -2.234375 3.046875 -2.578125 2.953125 -2.765625 C 2.859375 -2.953125 2.691406 -3.046875 2.453125 -3.046875 C 2.222656 -3.046875 2.054688 -2.957031 1.953125 -2.78125 C 1.847656 -2.601562 1.796875 -2.3125 1.796875 -1.90625 Z M 0.640625 -3.0625 L 0.15625 -3.0625 L 0.15625 -3.46875 L 1.796875 -3.46875 L 1.796875 -3.015625 C 1.898438 -3.203125 2.03125 -3.335938 2.1875 -3.421875 C 2.351562 -3.515625 2.5625 -3.5625 2.8125 -3.5625 C 3.300781 -3.5625 3.6875 -3.394531 3.96875 -3.0625 C 4.25 -2.738281 4.390625 -2.296875 4.390625 -1.734375 C 4.390625 -1.171875 4.25 -0.722656 3.96875 -0.390625 C 3.6875 -0.0664062 3.300781 0.09375 2.8125 0.09375 C 2.5625 0.09375 2.351562 0.0507812 2.1875 -0.03125 C 2.03125 -0.125 1.898438 -0.257812 1.796875 -0.4375 L 1.796875 1 L 2.328125 1 L 2.328125 1.390625 L 0.15625 1.390625 L 0.15625 1 L 0.640625 1 Z "/>
</g>
<g id="glyph-0-4">
<path d="M 0.609375 -2.65625 C 0.609375 -2.820312 0.664062 -2.960938 0.78125 -3.078125 C 0.90625 -3.203125 1.054688 -3.265625 1.234375 -3.265625 C 1.398438 -3.265625 1.539062 -3.203125 1.65625 -3.078125 C 1.78125 -2.960938 1.84375 -2.820312 1.84375 -2.65625 C 1.84375 -2.476562 1.78125 -2.328125 1.65625 -2.203125 C 1.539062 -2.085938 1.398438 -2.03125 1.234375 -2.03125 C 1.054688 -2.03125 0.90625 -2.085938 0.78125 -2.203125 C 0.664062 -2.328125 0.609375 -2.476562 0.609375 -2.65625 Z M 0.609375 -0.53125 C 0.609375 -0.695312 0.664062 -0.835938 0.78125 -0.953125 C 0.90625 -1.078125 1.054688 -1.140625 1.234375 -1.140625 C 1.398438 -1.140625 1.539062 -1.078125 1.65625 -0.953125 C 1.78125 -0.835938 1.84375 -0.695312 1.84375 -0.53125 C 1.84375 -0.351562 1.78125 -0.203125 1.65625 -0.078125 C 1.539062 0.0351562 1.398438 0.09375 1.234375 0.09375 C 1.054688 0.09375 0.90625 0.0351562 0.78125 -0.078125 C 0.664062 -0.203125 0.609375 -0.351562 0.609375 -0.53125 Z "/>
</g>
<g id="glyph-0-5">
</g>
<g id="glyph-0-6">
<path d="M 4.09375 -4.03125 L 2.078125 0 L 1.421875 0 L 3.375 -3.9375 L 0.96875 -3.9375 L 0.96875 -3.28125 L 0.53125 -3.28125 L 0.53125 -4.859375 L 4.09375 -4.859375 Z "/>
</g>
</g>
</defs>
<g fill="rgb(100%, 100%, 100%)" fill-opacity="1">
<use xlink:href="#glyph-0-0" x="30" y="26.259766"/>
<use xlink:href="#glyph-0-1" x="35" y="26.259766"/>
<use xlink:href="#glyph-0-2" x="38" y="26.259766"/>
<use xlink:href="#glyph-0-3" x="42" y="26.259766"/>
<use xlink:href="#glyph-0-4" x="47" y="26.259766"/>
<use xlink:href="#glyph-0-5" x="49" y="26.259766"/>
<use xlink:href="#glyph-0-6" x="51" y="26.259766"/>
</g>
</svg>
