<?xml version="1.0" encoding="UTF-8"?>
<svg xmlns="http://www.w3.org/2000/svg" xmlns:xlink="http://www.w3.org/1999/xlink" width="854" height="480" viewBox="0 0 854 480">
<defs>
<g>
<g id="glyph-0-0">
<path d="M 0.421875 0 L 0.421875 -0.40625 L 1.15625 -0.40625 L 1.15625 -5.265625 L 0.421875 -5.265625 L 0.421875 -5.671875 L 5 -5.671875 L 5 -4.40625 L 4.53125 -4.40625 L 4.53125 -5.203125 L 1.921875 -5.203125 L 1.921875 -3.3125 L 3.78125 -3.3125 L 3.78125 -4.015625 L 4.25 -4.015625 L 4.25 -2.125 L 3.78125 -2.125 L 3.78125 -2.84375 L 1.921875 -2.84375 L 1.921875 -0.46875 L 4.59375 -0.46875 L 4.59375 -1.265625 L 5.0625 -1.265625 L 5.0625 0 Z "/>
</g>
<g id="glyph-0-1">
<path d="M 3.09375 -1.265625 L 3.09375 -2.125 L 2.203125 -2.125 C 1.847656 -2.125 1.585938 -2.046875 1.421875 -1.890625 C 1.253906 -1.742188 1.171875 -1.519531 1.171875 -1.21875 C 1.171875 -0.9375 1.253906 -0.710938 1.421875 -0.546875 C 1.597656 -0.378906 1.832031 -0.296875 2.125 -0.296875 C 2.414062 -0.296875 2.648438 -0.382812 2.828125 -0.5625 C 3.003906 -0.738281 3.09375 -0.972656 3.09375 -1.265625 Z M 3.796875 -2.515625 L 3.796875 -0.40625 L 4.421875 -0.40625 L 4.421875 0 L 3.09375 0 L 3.09375 -0.4375 C 2.9375 -0.25 2.753906 -0.109375 2.546875 -0.015625 C 2.347656 0.0664062 2.113281 0.109375 1.84375 0.109375 C 1.394531 0.109375 1.039062 -0.0078125 0.78125 -0.25 C 0.519531 -0.488281 0.390625 -0.8125 0.390625 -1.21875 C 0.390625 -1.632812 0.539062 -1.957031 0.84375 -2.1875 C 1.144531 -2.414062 1.566406 -2.53125 2.109375 -2.53125 L 3.09375 -2.53125 L 3.09375 -2.8125 C 3.09375 -3.113281 3 -3.347656 2.8125 -3.515625 C 2.625 -3.679688 2.363281 -3.765625 2.03125 -3.765625 C 1.75 -3.765625 1.523438 -3.703125 1.359375 -3.578125 C 1.203125 -3.453125 1.101562 -3.265625 1.0625 -3.015625 L 0.703125 -3.015625 L 0.703125 -3.84375 C 0.941406 -3.945312 1.175781 -4.023438 1.40625 -4.078125 C 1.632812 -4.128906 1.859375 -4.15625 2.078125 -4.15625 C 2.640625 -4.15625 3.066406 -4.015625 3.359375 -3.734375 C 3.648438 -3.453125 3.796875 -3.046875 3.796875 -2.515625 Z "/>
</g>
<g id="glyph-0-2">
<path d="M 3.71875 -4.046875 L 3.71875 -3.03125 L 3.3125 -3.03125 C 3.300781 -3.226562 3.242188 -3.375 3.140625 -3.46875 C 3.046875 -3.570312 2.90625 -3.625 2.71875 -3.625 C 2.375 -3.625 2.109375 -3.503906 1.921875 -3.265625 C 1.742188 -3.035156 1.65625 -2.695312 1.65625 -2.25 L 1.65625 -0.40625 L 2.453125 -0.40625 L 2.453125 0 L 0.3125 0 L 0.3125 -0.40625 L 0.953125 -0.40625 L 0.953125 -3.640625 L 0.28125 -3.640625 L 0.28125 -4.03125 L 1.65625 -4.03125 L 1.65625 -3.328125 C 1.789062 -3.609375 1.960938 -3.816406 2.171875 -3.953125 C 2.390625 -4.085938 2.65625 -4.15625 2.96875 -4.15625 C 3.082031 -4.15625 3.203125 -4.144531 3.328125 -4.125 C 3.453125 -4.101562 3.582031 -4.078125 3.71875 -4.046875 Z "/>
</g>
<g id="glyph-0-3">
<path d="M 1.59375 -0.40625 L 2.25 -0.40625 L 2.25 0 L 0.21875 0 L 0.21875 -0.40625 L 0.890625 -0.40625 L 0.890625 -5.515625 L 0.21875 -5.515625 L 0.21875 -5.90625 L 1.59375 -5.90625 Z "/>
</g>
<g id="glyph-0-4">
<path d="M 1.671875 0.734375 L 1.953125 0.0625 L 0.4375 -3.625 L -0.015625 -3.625 L -0.015625 -4.03125 L 1.828125 -4.03125 L 1.828125 -3.625 L 1.1875 -3.625 L 2.328125 -0.859375 L 3.46875 -3.625 L 2.859375 -3.625 L 2.859375 -4.03125 L 4.375 -4.03125 L 4.375 -3.625 L 3.921875 -3.625 L 2.078125 0.90625 C 1.941406 1.226562 1.796875 1.445312 1.640625 1.5625 C 1.492188 1.675781 1.28125 1.734375 1 1.734375 C 0.875 1.734375 0.75 1.722656 0.625 1.703125 C 0.5 1.679688 0.375 1.648438 0.25 1.609375 L 0.25 0.84375 L 0.609375 0.84375 C 0.617188 1.007812 0.660156 1.128906 0.734375 1.203125 C 0.804688 1.285156 0.921875 1.328125 1.078125 1.328125 C 1.210938 1.328125 1.320312 1.285156 1.40625 1.203125 C 1.488281 1.128906 1.578125 0.972656 1.671875 0.734375 Z "/>
</g>
<g id="glyph-0-5">
</g>
<g id="glyph-0-6">
<path d="M 2.265625 -2.46875 L 3.109375 -3.625 L 2.5625 -3.625 L 2.5625 -4.03125 L 4.125 -4.03125 L 4.125 -3.625 L 3.59375 -3.625 L 2.5 -2.140625 L 3.765625 -0.40625 L 4.296875 -0.40625 L 4.296875 0 L 2.421875 0 L 2.421875 -0.40625 L 2.9375 -0.40625 L 2.0625 -1.609375 L 1.1875 -0.40625 L 1.703125 -0.40625 L 1.703125 0 L 0.171875 0 L 0.171875 -0.40625 L 0.703125 -0.40625 L 1.8125 -1.9375 L 0.59375 -3.625 L 0.09375 -3.625 L 0.09375 -4.03125 L 1.90625 -4.03125 L 1.90625 -3.625 L 1.421875 -3.625 Z "/>
</g>
<g id="glyph-0-7">
<path d="M 0.75 -5.296875 C 0.75 -5.410156 0.789062 -5.507812 0.875 -5.59375 C 0.96875 -5.675781 1.070312 -5.71875 1.1875 -5.71875 C 1.300781 -5.71875 1.398438 -5.675781 1.484375 -5.59375 C 1.578125 -5.507812 1.625 -5.410156 1.625 -5.296875 C 1.625 -5.171875 1.582031 -5.066406 1.5 -4.984375 C 1.414062 -4.898438 1.3125 -4.859375 1.1875 -4.859375 C 1.070312 -4.859375 0.96875 -4.898438 0.875 -4.984375 C 0.789062 -5.066406 0.75 -5.171875 0.75 -5.296875 Z M 1.65625 -0.40625 L 2.3125 -0.40625 L 2.3125 0 L 0.28125 0 L 0.28125 -0.40625 L 0.953125 -0.40625 L 0.953125 -3.625 L 0.28125 -3.625 L 0.28125 -4.03125 L 1.65625 -4.03125 Z "/>
</g>
<g id="glyph-0-8">
<path d="M 0.84375 -3.625 L 0.21875 -3.625 L 0.21875 -4.03125 L 0.84375 -4.03125 L 0.84375 -5.296875 L 1.546875 -5.296875 L 1.546875 -4.03125 L 2.859375 -4.03125 L 2.859375 -3.625 L 1.546875 -3.625 L 1.546875 -1.0625 C 1.546875 -0.726562 1.578125 -0.507812 1.640625 -0.40625 C 1.703125 -0.3125 1.820312 -0.265625 2 -0.265625 C 2.1875 -0.265625 2.320312 -0.316406 2.40625 -0.421875 C 2.488281 -0.535156 2.53125 -0.710938 2.53125 -0.953125 L 3.0625 -0.953125 C 3.039062 -0.585938 2.941406 -0.316406 2.765625 -0.140625 C 2.585938 0.0234375 2.316406 0.109375 1.953125 0.109375 C 1.546875 0.109375 1.257812 0.0195312 1.09375 -0.15625 C 0.925781 -0.332031 0.84375 -0.632812 0.84375 -1.0625 Z "/>
</g>
</g>
</defs>
<g fill="rgb(100%, 100%, 100%)" fill-opacity="1">
<use xlink:href="#glyph-0-0" x="30" y="27.21875"/>
<use xlink:href="#glyph-0-1" x="36" y="27.21875"/>
<use xlink:href="#glyph-0-2" x="41" y="27.21875"/>
<use xlink:href="#glyph-0-3" x="45" y="27.21875"/>
<use xlink:href="#glyph-0-4" x="47" y="27.21875"/>
<use xlink:href="#glyph-0-5" x="51" y="27.21875"/>
<use xlink:href="#glyph-0-0" x="53" y="27.21875"/>
<use xlink:href="#glyph-0-6" x="59" y="27.21875"/>
<use xlink:href="#glyph-0-7" x="63" y="27.21875"/>
<use xlink:href="#glyph-0-8" x="65" y="27.21875"/>
</g>
</svg>
