<?xml version="1.0" encoding="UTF-8"?>
<svg xmlns="http://www.w3.org/2000/svg" xmlns:xlink="http://www.w3.org/1999/xlink" width="854" height="480" viewBox="0 0 854 480">
<defs>
<g>
<g id="glyph-0-0">
<path d="M 4.75 -6.875 L 4.75 -6.125 L 1.59375 -6.125 L 1.59375 -4.15625 C 1.75 -4.257812 1.929688 -4.335938 2.140625 -4.390625 C 2.359375 -4.453125 2.601562 -4.484375 2.875 -4.484375 C 3.613281 -4.484375 4.195312 -4.273438 4.625 -3.859375 C 5.0625 -3.453125 5.28125 -2.890625 5.28125 -2.171875 C 5.28125 -1.453125 5.0625 -0.882812 4.625 -0.46875 C 4.1875 -0.0625 3.578125 0.140625 2.796875 0.140625 C 2.472656 0.140625 2.144531 0.0976562 1.8125 0.015625 C 1.488281 -0.0546875 1.148438 -0.171875 0.796875 -0.328125 L 0.796875 -1.671875 L 1.328125 -1.671875 C 1.347656 -1.234375 1.484375 -0.898438 1.734375 -0.671875 C 1.984375 -0.441406 2.335938 -0.328125 2.796875 -0.328125 C 3.273438 -0.328125 3.644531 -0.484375 3.90625 -0.796875 C 4.164062 -1.117188 4.296875 -1.578125 4.296875 -2.171875 C 4.296875 -2.773438 4.164062 -3.234375 3.90625 -3.546875 C 3.65625 -3.867188 3.285156 -4.03125 2.796875 -4.03125 C 2.515625 -4.03125 2.269531 -3.976562 2.0625 -3.875 C 1.851562 -3.78125 1.664062 -3.628906 1.5 -3.421875 L 1.109375 -3.421875 L 1.109375 -6.875 Z "/>
</g>
</g>
</defs>
<g fill="rgb(100%, 100%, 100%)" fill-opacity="1">
<use xlink:href="#glyph-0-0" x="30" y="28.766602"/>
</g>
</svg>
