<?xml version="1.0" encoding="UTF-8"?>
<svg xmlns="http://www.w3.org/2000/svg" xmlns:xlink="http://www.w3.org/1999/xlink" width="2560" height="1440" viewBox="0 0 2560 1440">
<defs>
<g>
<g id="glyph-0-0">
<path d="M 0.3125 0 L 0.3125 -0.390625 L 0.9375 -0.390625 L 0.9375 -4.46875 L 0.3125 -4.46875 L 0.3125 -4.859375 L 3.203125 -4.859375 C 3.785156 -4.859375 4.226562 -4.757812 4.53125 -4.5625 C 4.832031 -4.363281 4.984375 -4.0625 4.984375 -3.65625 C 4.984375 -3.375 4.878906 -3.144531 4.671875 -2.96875 C 4.460938 -2.800781 4.15625 -2.695312 3.75 -2.65625 C 4.238281 -2.613281 4.613281 -2.484375 4.875 -2.265625 C 5.132812 -2.046875 5.265625 -1.757812 5.265625 -1.40625 C 5.265625 -0.925781 5.082031 -0.570312 4.71875 -0.34375 C 4.363281 -0.113281 3.796875 0 3.015625 0 Z M 2.1875 -2.828125 L 2.609375 -2.828125 C 2.984375 -2.828125 3.257812 -2.894531 3.4375 -3.03125 C 3.625 -3.164062 3.71875 -3.375 3.71875 -3.65625 C 3.71875 -3.9375 3.628906 -4.140625 3.453125 -4.265625 C 3.273438 -4.398438 2.992188 -4.46875 2.609375 -4.46875 L 2.1875 -4.46875 Z M 2.1875 -0.390625 L 2.65625 -0.390625 C 3.070312 -0.390625 3.378906 -0.472656 3.578125 -0.640625 C 3.773438 -0.804688 3.875 -1.0625 3.875 -1.40625 C 3.875 -1.75 3.769531 -2.003906 3.5625 -2.171875 C 3.363281 -2.347656 3.0625 -2.4375 2.65625 -2.4375 L 2.1875 -2.4375 Z "/>
</g>
<g id="glyph-0-1">
<path d="M 0.609375 -4.4375 C 0.609375 -4.613281 0.671875 -4.757812 0.796875 -4.875 C 0.921875 -5 1.066406 -5.0625 1.234375 -5.0625 C 1.410156 -5.0625 1.554688 -5 1.671875 -4.875 C 1.796875 -4.757812 1.859375 -4.613281 1.859375 -4.4375 C 1.859375 -4.269531 1.796875 -4.125 1.671875 -4 C 1.554688 -3.882812 1.410156 -3.828125 1.234375 -3.828125 C 1.066406 -3.828125 0.921875 -3.882812 0.796875 -4 C 0.671875 -4.125 0.609375 -4.269531 0.609375 -4.4375 Z M 1.875 -0.390625 L 2.375 -0.390625 L 2.375 0 L 0.234375 0 L 0.234375 -0.390625 L 0.71875 -0.390625 L 0.71875 -3.0625 L 0.234375 -3.0625 L 0.234375 -3.46875 L 1.875 -3.46875 Z "/>
</g>
<g id="glyph-0-2">
<path d="M 0.234375 0 L 0.234375 -0.390625 L 0.71875 -0.390625 L 0.71875 -3.0625 L 0.234375 -3.0625 L 0.234375 -3.46875 L 1.875 -3.46875 L 1.875 -2.96875 C 2.007812 -3.175781 2.164062 -3.328125 2.34375 -3.421875 C 2.519531 -3.515625 2.742188 -3.5625 3.015625 -3.5625 C 3.410156 -3.5625 3.707031 -3.445312 3.90625 -3.21875 C 4.101562 -2.988281 4.203125 -2.648438 4.203125 -2.203125 L 4.203125 -0.390625 L 4.703125 -0.390625 L 4.703125 0 L 2.625 0 L 2.625 -0.390625 L 3.046875 -0.390625 L 3.046875 -2.234375 C 3.046875 -2.523438 3.007812 -2.726562 2.9375 -2.84375 C 2.863281 -2.957031 2.734375 -3.015625 2.546875 -3.015625 C 2.316406 -3.015625 2.144531 -2.925781 2.03125 -2.75 C 1.925781 -2.582031 1.875 -2.316406 1.875 -1.953125 L 1.875 -0.390625 L 2.296875 -0.390625 L 2.296875 0 Z "/>
</g>
<g id="glyph-0-3">
<path d="M 3.671875 -2.125 L 3.671875 -0.390625 L 4.171875 -0.390625 L 4.171875 0 L 2.515625 0 L 2.515625 -0.4375 C 2.367188 -0.257812 2.203125 -0.125 2.015625 -0.03125 C 1.828125 0.0507812 1.613281 0.09375 1.375 0.09375 C 1.019531 0.09375 0.75 0 0.5625 -0.1875 C 0.375 -0.375 0.28125 -0.644531 0.28125 -1 C 0.28125 -1.394531 0.414062 -1.6875 0.6875 -1.875 C 0.957031 -2.070312 1.367188 -2.171875 1.921875 -2.171875 L 2.515625 -2.171875 L 2.515625 -2.375 C 2.515625 -2.65625 2.445312 -2.863281 2.3125 -3 C 2.1875 -3.132812 1.984375 -3.203125 1.703125 -3.203125 C 1.472656 -3.203125 1.296875 -3.148438 1.171875 -3.046875 C 1.046875 -2.953125 0.957031 -2.800781 0.90625 -2.59375 L 0.546875 -2.59375 L 0.546875 -3.34375 C 0.742188 -3.414062 0.953125 -3.46875 1.171875 -3.5 C 1.398438 -3.539062 1.640625 -3.5625 1.890625 -3.5625 C 2.503906 -3.5625 2.953125 -3.441406 3.234375 -3.203125 C 3.523438 -2.972656 3.671875 -2.613281 3.671875 -2.125 Z M 2.515625 -1.09375 L 2.515625 -1.78125 L 2.09375 -1.78125 C 1.875 -1.78125 1.707031 -1.722656 1.59375 -1.609375 C 1.476562 -1.492188 1.421875 -1.320312 1.421875 -1.09375 C 1.421875 -0.875 1.460938 -0.710938 1.546875 -0.609375 C 1.628906 -0.503906 1.753906 -0.453125 1.921875 -0.453125 C 2.109375 -0.453125 2.253906 -0.507812 2.359375 -0.625 C 2.460938 -0.738281 2.515625 -0.894531 2.515625 -1.09375 Z "/>
</g>
<g id="glyph-0-4">
<path d="M 3.578125 -3.5 L 3.578125 -2.46875 L 3.21875 -2.46875 C 3.207031 -2.65625 3.15625 -2.789062 3.0625 -2.875 C 2.976562 -2.96875 2.851562 -3.015625 2.6875 -3.015625 C 2.4375 -3.015625 2.238281 -2.90625 2.09375 -2.6875 C 1.945312 -2.46875 1.875 -2.160156 1.875 -1.765625 L 1.875 -0.390625 L 2.5 -0.390625 L 2.5 0 L 0.234375 0 L 0.234375 -0.390625 L 0.71875 -0.390625 L 0.71875 -3.0625 L 0.1875 -3.0625 L 0.1875 -3.46875 L 1.875 -3.46875 L 1.875 -2.84375 C 1.988281 -3.082031 2.132812 -3.257812 2.3125 -3.375 C 2.5 -3.5 2.726562 -3.5625 3 -3.5625 C 3.070312 -3.5625 3.15625 -3.554688 3.25 -3.546875 C 3.34375 -3.535156 3.453125 -3.519531 3.578125 -3.5 Z "/>
</g>
<g id="glyph-0-5">
<path d="M 2.078125 0.78125 C 1.972656 1.03125 1.847656 1.207031 1.703125 1.3125 C 1.554688 1.425781 1.359375 1.484375 1.109375 1.484375 C 1.003906 1.484375 0.882812 1.46875 0.75 1.4375 C 0.625 1.414062 0.484375 1.382812 0.328125 1.34375 L 0.328125 0.625 L 0.6875 0.625 C 0.695312 0.789062 0.738281 0.910156 0.8125 0.984375 C 0.882812 1.066406 0.992188 1.109375 1.140625 1.109375 C 1.285156 1.109375 1.398438 1.070312 1.484375 1 C 1.566406 0.925781 1.65625 0.78125 1.75 0.5625 L 1.796875 0.4375 L 0.28125 -3.0625 L -0.09375 -3.0625 L -0.09375 -3.46875 L 1.90625 -3.46875 L 1.90625 -3.0625 L 1.5 -3.0625 L 2.375 -1.015625 L 3.203125 -3.0625 L 2.734375 -3.0625 L 2.734375 -3.46875 L 4.03125 -3.46875 L 4.03125 -3.0625 L 3.609375 -3.0625 Z "/>
</g>
<g id="glyph-0-6">
</g>
<g id="glyph-0-7">
<path d="M 0.515625 -0.234375 L 0.515625 -1.390625 L 0.921875 -1.390625 C 0.984375 -1.023438 1.132812 -0.75 1.375 -0.5625 C 1.613281 -0.382812 1.9375 -0.296875 2.34375 -0.296875 C 2.6875 -0.296875 2.941406 -0.359375 3.109375 -0.484375 C 3.285156 -0.617188 3.375 -0.8125 3.375 -1.0625 C 3.375 -1.25 3.3125 -1.394531 3.1875 -1.5 C 3.070312 -1.613281 2.832031 -1.71875 2.46875 -1.8125 L 1.734375 -2 C 1.253906 -2.113281 0.914062 -2.28125 0.71875 -2.5 C 0.53125 -2.71875 0.4375 -3.023438 0.4375 -3.421875 C 0.4375 -3.898438 0.597656 -4.273438 0.921875 -4.546875 C 1.242188 -4.816406 1.691406 -4.953125 2.265625 -4.953125 C 2.546875 -4.953125 2.835938 -4.925781 3.140625 -4.875 C 3.453125 -4.832031 3.773438 -4.765625 4.109375 -4.671875 L 4.109375 -3.59375 L 3.703125 -3.59375 C 3.640625 -3.925781 3.5 -4.171875 3.28125 -4.328125 C 3.070312 -4.484375 2.769531 -4.5625 2.375 -4.5625 C 2.050781 -4.5625 1.804688 -4.503906 1.640625 -4.390625 C 1.484375 -4.273438 1.40625 -4.109375 1.40625 -3.890625 C 1.40625 -3.691406 1.457031 -3.535156 1.5625 -3.421875 C 1.675781 -3.316406 1.957031 -3.207031 2.40625 -3.09375 L 3.125 -2.921875 C 3.582031 -2.804688 3.910156 -2.628906 4.109375 -2.390625 C 4.316406 -2.148438 4.421875 -1.820312 4.421875 -1.40625 C 4.421875 -0.914062 4.25 -0.539062 3.90625 -0.28125 C 3.570312 -0.03125 3.070312 0.09375 2.40625 0.09375 C 2.09375 0.09375 1.78125 0.0664062 1.46875 0.015625 C 1.15625 -0.0351562 0.835938 -0.117188 0.515625 -0.234375 Z "/>
</g>
<g id="glyph-0-8">
<path d="M 2.671875 -1.953125 C 2.671875 -2.410156 2.628906 -2.726562 2.546875 -2.90625 C 2.460938 -3.09375 2.316406 -3.1875 2.109375 -3.1875 C 1.910156 -3.1875 1.769531 -3.097656 1.6875 -2.921875 C 1.601562 -2.742188 1.5625 -2.441406 1.5625 -2.015625 L 1.5625 -1.953125 Z M 3.9375 -1.5625 L 1.5625 -1.5625 L 1.5625 -1.546875 C 1.5625 -1.097656 1.628906 -0.773438 1.765625 -0.578125 C 1.898438 -0.378906 2.113281 -0.28125 2.40625 -0.28125 C 2.65625 -0.28125 2.859375 -0.34375 3.015625 -0.46875 C 3.171875 -0.601562 3.269531 -0.796875 3.3125 -1.046875 L 3.859375 -1.046875 C 3.765625 -0.648438 3.578125 -0.359375 3.296875 -0.171875 C 3.023438 0.00390625 2.640625 0.09375 2.140625 0.09375 C 1.535156 0.09375 1.070312 -0.0625 0.75 -0.375 C 0.4375 -0.695312 0.28125 -1.148438 0.28125 -1.734375 C 0.28125 -2.304688 0.441406 -2.753906 0.765625 -3.078125 C 1.085938 -3.398438 1.546875 -3.5625 2.140625 -3.5625 C 2.710938 -3.5625 3.148438 -3.390625 3.453125 -3.046875 C 3.753906 -2.710938 3.914062 -2.21875 3.9375 -1.5625 Z "/>
</g>
<g id="glyph-0-9">
<path d="M 3.765625 -1.078125 C 3.679688 -0.679688 3.507812 -0.382812 3.25 -0.1875 C 3 0 2.65625 0.09375 2.21875 0.09375 C 1.601562 0.09375 1.125 -0.0625 0.78125 -0.375 C 0.445312 -0.695312 0.28125 -1.148438 0.28125 -1.734375 C 0.28125 -2.304688 0.445312 -2.753906 0.78125 -3.078125 C 1.113281 -3.398438 1.578125 -3.5625 2.171875 -3.5625 C 2.410156 -3.5625 2.648438 -3.535156 2.890625 -3.484375 C 3.140625 -3.441406 3.394531 -3.375 3.65625 -3.28125 L 3.65625 -2.328125 L 3.28125 -2.328125 C 3.25 -2.617188 3.164062 -2.832031 3.03125 -2.96875 C 2.894531 -3.113281 2.703125 -3.1875 2.453125 -3.1875 C 2.128906 -3.1875 1.898438 -3.078125 1.765625 -2.859375 C 1.628906 -2.640625 1.5625 -2.265625 1.5625 -1.734375 C 1.5625 -1.210938 1.625 -0.835938 1.75 -0.609375 C 1.882812 -0.390625 2.101562 -0.28125 2.40625 -0.28125 C 2.632812 -0.28125 2.816406 -0.347656 2.953125 -0.484375 C 3.097656 -0.617188 3.1875 -0.816406 3.21875 -1.078125 Z "/>
</g>
<g id="glyph-0-10">
<path d="M 0.234375 0 L 0.234375 -0.390625 L 0.71875 -0.390625 L 0.71875 -4.671875 L 0.203125 -4.671875 L 0.203125 -5.0625 L 1.875 -5.0625 L 1.875 -2.96875 C 2.007812 -3.175781 2.164062 -3.328125 2.34375 -3.421875 C 2.519531 -3.515625 2.742188 -3.5625 3.015625 -3.5625 C 3.410156 -3.5625 3.707031 -3.445312 3.90625 -3.21875 C 4.101562 -2.988281 4.203125 -2.648438 4.203125 -2.203125 L 4.203125 -0.390625 L 4.703125 -0.390625 L 4.703125 0 L 2.625 0 L 2.625 -0.390625 L 3.046875 -0.390625 L 3.046875 -2.234375 C 3.046875 -2.523438 3.007812 -2.726562 2.9375 -2.84375 C 2.863281 -2.957031 2.734375 -3.015625 2.546875 -3.015625 C 2.316406 -3.015625 2.144531 -2.925781 2.03125 -2.75 C 1.925781 -2.582031 1.875 -2.316406 1.875 -1.953125 L 1.875 -0.390625 L 2.296875 -0.390625 L 2.296875 0 Z "/>
</g>
</g>
</defs>
<g fill="rgb(100%, 100%, 100%)" fill-opacity="1">
<use xlink:href="#glyph-0-0" x="30" y="26.259766"/>
<use xlink:href="#glyph-0-1" x="36" y="26.259766"/>
<use xlink:href="#glyph-0-2" x="39" y="26.259766"/>
<use xlink:href="#glyph-0-3" x="44" y="26.259766"/>
<use xlink:href="#glyph-0-4" x="48" y="26.259766"/>
<use xlink:href="#glyph-0-5" x="52" y="26.259766"/>
<use xlink:href="#glyph-0-6" x="56" y="26.259766"/>
<use xlink:href="#glyph-0-7" x="58" y="26.259766"/>
<use xlink:href="#glyph-0-8" x="63" y="26.259766"/>
<use xlink:href="#glyph-0-3" x="67" y="26.259766"/>
<use xlink:href="#glyph-0-4" x="71" y="26.259766"/>
<use xlink:href="#glyph-0-9" x="75" y="26.259766"/>
<use xlink:href="#glyph-0-10" x="79" y="26.259766"/>
</g>
</svg>
