<?xml version="1.0" encoding="UTF-8"?>
<svg xmlns="http://www.w3.org/2000/svg" xmlns:xlink="http://www.w3.org/1999/xlink" width="854" height="480" viewBox="0 0 854 480">
<defs>
<g>
<g id="glyph-0-0">
<path d="M 1.921875 -0.40625 L 3.0625 -0.40625 C 3.519531 -0.40625 3.851562 -0.503906 4.0625 -0.703125 C 4.269531 -0.898438 4.375 -1.210938 4.375 -1.640625 C 4.375 -2.066406 4.269531 -2.378906 4.0625 -2.578125 C 3.851562 -2.773438 3.519531 -2.875 3.0625 -2.875 L 1.921875 -2.875 Z M 1.921875 -3.28125 L 2.890625 -3.28125 C 3.304688 -3.28125 3.609375 -3.359375 3.796875 -3.515625 C 3.984375 -3.671875 4.078125 -3.921875 4.078125 -4.265625 C 4.078125 -4.617188 3.984375 -4.875 3.796875 -5.03125 C 3.609375 -5.1875 3.304688 -5.265625 2.890625 -5.265625 L 1.921875 -5.265625 Z M 0.421875 0 L 0.421875 -0.40625 L 1.15625 -0.40625 L 1.15625 -5.265625 L 0.421875 -5.265625 L 0.421875 -5.671875 L 3.234375 -5.671875 C 3.804688 -5.671875 4.234375 -5.550781 4.515625 -5.3125 C 4.804688 -5.082031 4.953125 -4.734375 4.953125 -4.265625 C 4.953125 -3.929688 4.851562 -3.664062 4.65625 -3.46875 C 4.457031 -3.269531 4.160156 -3.144531 3.765625 -3.09375 C 4.253906 -3.03125 4.625 -2.875 4.875 -2.625 C 5.125 -2.382812 5.25 -2.054688 5.25 -1.640625 C 5.25 -1.078125 5.066406 -0.660156 4.703125 -0.390625 C 4.347656 -0.128906 3.796875 0 3.046875 0 Z "/>
</g>
<g id="glyph-0-1">
<path d="M 2.75 -4.03125 L 4.0625 -4.03125 L 4.0625 -0.40625 L 4.71875 -0.40625 L 4.71875 0 L 3.359375 0 L 3.359375 -0.71875 C 3.234375 -0.445312 3.066406 -0.238281 2.859375 -0.09375 C 2.648438 0.0390625 2.410156 0.109375 2.140625 0.109375 C 1.691406 0.109375 1.363281 -0.015625 1.15625 -0.265625 C 0.945312 -0.523438 0.84375 -0.925781 0.84375 -1.46875 L 0.84375 -3.625 L 0.203125 -3.625 L 0.203125 -4.03125 L 1.546875 -4.03125 L 1.546875 -1.6875 C 1.546875 -1.195312 1.601562 -0.859375 1.71875 -0.671875 C 1.84375 -0.492188 2.054688 -0.40625 2.359375 -0.40625 C 2.691406 -0.40625 2.941406 -0.519531 3.109375 -0.75 C 3.273438 -0.988281 3.359375 -1.335938 3.359375 -1.796875 L 3.359375 -3.625 L 2.75 -3.625 Z "/>
</g>
<g id="glyph-0-2">
<path d="M 0.890625 -0.40625 L 0.890625 -5.515625 L 0.21875 -5.515625 L 0.21875 -5.90625 L 1.59375 -5.90625 L 1.59375 -3.40625 C 1.726562 -3.65625 1.898438 -3.84375 2.109375 -3.96875 C 2.328125 -4.09375 2.59375 -4.15625 2.90625 -4.15625 C 3.394531 -4.15625 3.796875 -3.957031 4.109375 -3.5625 C 4.429688 -3.164062 4.59375 -2.648438 4.59375 -2.015625 C 4.59375 -1.390625 4.429688 -0.878906 4.109375 -0.484375 C 3.796875 -0.0859375 3.394531 0.109375 2.90625 0.109375 C 2.59375 0.109375 2.328125 0.0507812 2.109375 -0.0625 C 1.898438 -0.1875 1.726562 -0.375 1.59375 -0.625 L 1.59375 0 L 0.21875 0 L 0.21875 -0.40625 Z M 1.59375 -1.8125 C 1.59375 -1.332031 1.6875 -0.960938 1.875 -0.703125 C 2.0625 -0.453125 2.332031 -0.328125 2.6875 -0.328125 C 3.039062 -0.328125 3.304688 -0.46875 3.484375 -0.75 C 3.671875 -1.039062 3.765625 -1.460938 3.765625 -2.015625 C 3.765625 -2.578125 3.671875 -3 3.484375 -3.28125 C 3.304688 -3.570312 3.039062 -3.71875 2.6875 -3.71875 C 2.332031 -3.71875 2.0625 -3.585938 1.875 -3.328125 C 1.6875 -3.066406 1.59375 -2.695312 1.59375 -2.21875 Z "/>
</g>
<g id="glyph-0-3">
<path d="M 1.59375 -0.40625 L 2.25 -0.40625 L 2.25 0 L 0.21875 0 L 0.21875 -0.40625 L 0.890625 -0.40625 L 0.890625 -5.515625 L 0.21875 -5.515625 L 0.21875 -5.90625 L 1.59375 -5.90625 Z "/>
</g>
<g id="glyph-0-4">
<path d="M 4.21875 -1.953125 L 1.203125 -1.953125 L 1.203125 -1.921875 C 1.203125 -1.367188 1.300781 -0.953125 1.5 -0.671875 C 1.707031 -0.398438 2.015625 -0.265625 2.421875 -0.265625 C 2.722656 -0.265625 2.972656 -0.34375 3.171875 -0.5 C 3.367188 -0.664062 3.507812 -0.90625 3.59375 -1.21875 L 4.15625 -1.21875 C 4.039062 -0.78125 3.832031 -0.445312 3.53125 -0.21875 C 3.226562 0 2.832031 0.109375 2.34375 0.109375 C 1.757812 0.109375 1.285156 -0.0820312 0.921875 -0.46875 C 0.566406 -0.863281 0.390625 -1.378906 0.390625 -2.015625 C 0.390625 -2.660156 0.5625 -3.175781 0.90625 -3.5625 C 1.257812 -3.957031 1.722656 -4.15625 2.296875 -4.15625 C 2.910156 -4.15625 3.378906 -3.960938 3.703125 -3.578125 C 4.035156 -3.203125 4.207031 -2.660156 4.21875 -1.953125 Z M 3.390625 -2.34375 C 3.378906 -2.820312 3.28125 -3.175781 3.09375 -3.40625 C 2.90625 -3.644531 2.640625 -3.765625 2.296875 -3.765625 C 1.972656 -3.765625 1.71875 -3.644531 1.53125 -3.40625 C 1.351562 -3.164062 1.242188 -2.8125 1.203125 -2.34375 Z "/>
</g>
<g id="glyph-0-5">
</g>
<g id="glyph-0-6">
<path d="M 0.71875 -0.28125 L 0.71875 -1.5625 L 1.15625 -1.5625 C 1.164062 -1.132812 1.289062 -0.816406 1.53125 -0.609375 C 1.769531 -0.398438 2.128906 -0.296875 2.609375 -0.296875 C 3.066406 -0.296875 3.410156 -0.382812 3.640625 -0.5625 C 3.878906 -0.738281 4 -1 4 -1.34375 C 4 -1.613281 3.925781 -1.820312 3.78125 -1.96875 C 3.644531 -2.125 3.34375 -2.269531 2.875 -2.40625 L 2.125 -2.625 C 1.582031 -2.789062 1.203125 -2.992188 0.984375 -3.234375 C 0.765625 -3.484375 0.65625 -3.820312 0.65625 -4.25 C 0.65625 -4.738281 0.820312 -5.113281 1.15625 -5.375 C 1.5 -5.644531 1.984375 -5.78125 2.609375 -5.78125 C 2.867188 -5.78125 3.15625 -5.75 3.46875 -5.6875 C 3.78125 -5.632812 4.113281 -5.550781 4.46875 -5.4375 L 4.46875 -4.234375 L 4.046875 -4.234375 C 4.003906 -4.628906 3.867188 -4.914062 3.640625 -5.09375 C 3.421875 -5.28125 3.082031 -5.375 2.625 -5.375 C 2.21875 -5.375 1.910156 -5.289062 1.703125 -5.125 C 1.492188 -4.957031 1.390625 -4.71875 1.390625 -4.40625 C 1.390625 -4.132812 1.46875 -3.921875 1.625 -3.765625 C 1.78125 -3.617188 2.113281 -3.46875 2.625 -3.3125 L 3.328125 -3.109375 C 3.847656 -2.953125 4.21875 -2.753906 4.4375 -2.515625 C 4.65625 -2.273438 4.765625 -1.953125 4.765625 -1.546875 C 4.765625 -0.992188 4.585938 -0.578125 4.234375 -0.296875 C 3.878906 -0.0234375 3.351562 0.109375 2.65625 0.109375 C 2.34375 0.109375 2.023438 0.078125 1.703125 0.015625 C 1.378906 -0.046875 1.050781 -0.144531 0.71875 -0.28125 Z "/>
</g>
<g id="glyph-0-7">
<path d="M 2.34375 -0.265625 C 2.71875 -0.265625 3 -0.410156 3.1875 -0.703125 C 3.375 -1.003906 3.46875 -1.441406 3.46875 -2.015625 C 3.46875 -2.597656 3.375 -3.035156 3.1875 -3.328125 C 3 -3.617188 2.71875 -3.765625 2.34375 -3.765625 C 1.96875 -3.765625 1.679688 -3.617188 1.484375 -3.328125 C 1.296875 -3.035156 1.203125 -2.597656 1.203125 -2.015625 C 1.203125 -1.441406 1.296875 -1.003906 1.484375 -0.703125 C 1.679688 -0.410156 1.96875 -0.265625 2.34375 -0.265625 Z M 2.34375 0.109375 C 1.75 0.109375 1.273438 -0.0820312 0.921875 -0.46875 C 0.566406 -0.863281 0.390625 -1.378906 0.390625 -2.015625 C 0.390625 -2.660156 0.566406 -3.175781 0.921875 -3.5625 C 1.273438 -3.957031 1.75 -4.15625 2.34375 -4.15625 C 2.925781 -4.15625 3.394531 -3.957031 3.75 -3.5625 C 4.113281 -3.175781 4.296875 -2.660156 4.296875 -2.015625 C 4.296875 -1.378906 4.113281 -0.863281 3.75 -0.46875 C 3.394531 -0.0820312 2.925781 0.109375 2.34375 0.109375 Z "/>
</g>
<g id="glyph-0-8">
<path d="M 3.71875 -4.046875 L 3.71875 -3.03125 L 3.3125 -3.03125 C 3.300781 -3.226562 3.242188 -3.375 3.140625 -3.46875 C 3.046875 -3.570312 2.90625 -3.625 2.71875 -3.625 C 2.375 -3.625 2.109375 -3.503906 1.921875 -3.265625 C 1.742188 -3.035156 1.65625 -2.695312 1.65625 -2.25 L 1.65625 -0.40625 L 2.453125 -0.40625 L 2.453125 0 L 0.3125 0 L 0.3125 -0.40625 L 0.953125 -0.40625 L 0.953125 -3.640625 L 0.28125 -3.640625 L 0.28125 -4.03125 L 1.65625 -4.03125 L 1.65625 -3.328125 C 1.789062 -3.609375 1.960938 -3.816406 2.171875 -3.953125 C 2.390625 -4.085938 2.65625 -4.15625 2.96875 -4.15625 C 3.082031 -4.15625 3.203125 -4.144531 3.328125 -4.125 C 3.453125 -4.101562 3.582031 -4.078125 3.71875 -4.046875 Z "/>
</g>
<g id="glyph-0-9">
<path d="M 0.84375 -3.625 L 0.21875 -3.625 L 0.21875 -4.03125 L 0.84375 -4.03125 L 0.84375 -5.296875 L 1.546875 -5.296875 L 1.546875 -4.03125 L 2.859375 -4.03125 L 2.859375 -3.625 L 1.546875 -3.625 L 1.546875 -1.0625 C 1.546875 -0.726562 1.578125 -0.507812 1.640625 -0.40625 C 1.703125 -0.3125 1.820312 -0.265625 2 -0.265625 C 2.1875 -0.265625 2.320312 -0.316406 2.40625 -0.421875 C 2.488281 -0.535156 2.53125 -0.710938 2.53125 -0.953125 L 3.0625 -0.953125 C 3.039062 -0.585938 2.941406 -0.316406 2.765625 -0.140625 C 2.585938 0.0234375 2.316406 0.109375 1.953125 0.109375 C 1.546875 0.109375 1.257812 0.0195312 1.09375 -0.15625 C 0.925781 -0.332031 0.84375 -0.632812 0.84375 -1.0625 Z "/>
</g>
</g>
</defs>
<g fill="rgb(100%, 100%, 100%)" fill-opacity="1">
<use xlink:href="#glyph-0-0" x="30" y="27.21875"/>
<use xlink:href="#glyph-0-1" x="36" y="27.21875"/>
<use xlink:href="#glyph-0-2" x="41" y="27.21875"/>
<use xlink:href="#glyph-0-2" x="46" y="27.21875"/>
<use xlink:href="#glyph-0-3" x="51" y="27.21875"/>
<use xlink:href="#glyph-0-4" x="53" y="27.21875"/>
<use xlink:href="#glyph-0-5" x="58" y="27.21875"/>
<use xlink:href="#glyph-0-6" x="60" y="27.21875"/>
<use xlink:href="#glyph-0-7" x="65" y="27.21875"/>
<use xlink:href="#glyph-0-8" x="70" y="27.21875"/>
<use xlink:href="#glyph-0-9" x="74" y="27.21875"/>
</g>
</svg>
