<?xml version="1.0" encoding="UTF-8"?>
<svg xmlns="http://www.w3.org/2000/svg" xmlns:xlink="http://www.w3.org/1999/xlink" width="2560" height="1440" viewBox="0 0 2560 1440">
<defs>
<g>
<g id="glyph-0-0">
<path d="M 3.015625 -1.390625 L 0.859375 -1.390625 L 0.859375 -1.375 C 0.859375 -0.976562 0.929688 -0.679688 1.078125 -0.484375 C 1.222656 -0.285156 1.441406 -0.1875 1.734375 -0.1875 C 1.953125 -0.1875 2.128906 -0.242188 2.265625 -0.359375 C 2.410156 -0.472656 2.507812 -0.644531 2.5625 -0.875 L 2.96875 -0.875 C 2.882812 -0.5625 2.734375 -0.320312 2.515625 -0.15625 C 2.304688 0 2.023438 0.078125 1.671875 0.078125 C 1.253906 0.078125 0.914062 -0.0546875 0.65625 -0.328125 C 0.40625 -0.609375 0.28125 -0.976562 0.28125 -1.4375 C 0.28125 -1.894531 0.40625 -2.265625 0.65625 -2.546875 C 0.90625 -2.828125 1.234375 -2.96875 1.640625 -2.96875 C 2.078125 -2.96875 2.410156 -2.832031 2.640625 -2.5625 C 2.878906 -2.289062 3.003906 -1.898438 3.015625 -1.390625 Z M 2.421875 -1.671875 C 2.410156 -2.015625 2.335938 -2.269531 2.203125 -2.4375 C 2.078125 -2.613281 1.890625 -2.703125 1.640625 -2.703125 C 1.410156 -2.703125 1.226562 -2.613281 1.09375 -2.4375 C 0.96875 -2.269531 0.890625 -2.015625 0.859375 -1.671875 Z "/>
</g>
<g id="glyph-0-1">
<path d="M 1.140625 -0.28125 L 1.609375 -0.28125 L 1.609375 0 L 0.15625 0 L 0.15625 -0.28125 L 0.640625 -0.28125 L 0.640625 -3.9375 L 0.15625 -3.9375 L 0.15625 -4.21875 L 1.140625 -4.21875 Z "/>
</g>
<g id="glyph-0-2">
<path d="M 0.3125 -0.15625 L 0.3125 -0.828125 L 0.59375 -0.828125 C 0.601562 -0.617188 0.671875 -0.457031 0.796875 -0.34375 C 0.929688 -0.238281 1.125 -0.1875 1.375 -0.1875 C 1.59375 -0.1875 1.757812 -0.226562 1.875 -0.3125 C 2 -0.394531 2.0625 -0.519531 2.0625 -0.6875 C 2.0625 -0.8125 2.015625 -0.910156 1.921875 -0.984375 C 1.835938 -1.066406 1.660156 -1.148438 1.390625 -1.234375 L 1.03125 -1.359375 C 0.78125 -1.441406 0.597656 -1.539062 0.484375 -1.65625 C 0.367188 -1.78125 0.3125 -1.9375 0.3125 -2.125 C 0.3125 -2.382812 0.410156 -2.585938 0.609375 -2.734375 C 0.804688 -2.890625 1.070312 -2.96875 1.40625 -2.96875 C 1.5625 -2.96875 1.722656 -2.945312 1.890625 -2.90625 C 2.054688 -2.863281 2.234375 -2.804688 2.421875 -2.734375 L 2.421875 -2.109375 L 2.125 -2.109375 C 2.113281 -2.285156 2.046875 -2.425781 1.921875 -2.53125 C 1.804688 -2.644531 1.640625 -2.703125 1.421875 -2.703125 C 1.210938 -2.703125 1.054688 -2.660156 0.953125 -2.578125 C 0.847656 -2.503906 0.796875 -2.394531 0.796875 -2.25 C 0.796875 -2.125 0.832031 -2.023438 0.90625 -1.953125 C 0.988281 -1.878906 1.15625 -1.804688 1.40625 -1.734375 L 1.796875 -1.609375 C 2.066406 -1.523438 2.257812 -1.421875 2.375 -1.296875 C 2.5 -1.171875 2.5625 -1.003906 2.5625 -0.796875 C 2.5625 -0.523438 2.457031 -0.3125 2.25 -0.15625 C 2.039062 0 1.753906 0.078125 1.390625 0.078125 C 1.203125 0.078125 1.019531 0.0546875 0.84375 0.015625 C 0.664062 -0.0234375 0.488281 -0.0820312 0.3125 -0.15625 Z "/>
</g>
</g>
</defs>
<g fill="rgb(53.333333%, 53.333333%, 53.333333%)" fill-opacity="1">
<use xlink:href="#glyph-0-0" x="30" y="25.157227"/>
<use xlink:href="#glyph-0-1" x="33" y="25.157227"/>
<use xlink:href="#glyph-0-2" x="35" y="25.157227"/>
<use xlink:href="#glyph-0-0" x="38" y="25.157227"/>
</g>
</svg>
